{"asset":{"generator":"Khronos glTF Spline I/O v0.0.1","version":"2.0"},"scenes":[{"nodes":[0]}],"nodes":[{"name":"","children":[1,2,3,4,5,6,7,8]},{"name":"Spot Light 3","translation":[429.08611391632576,-1.2567724638756772e-13,-506.3220296536278],"rotation":[-0.6123724356957945,-0.3535533905932737,-0.35355339059327395,0.6123724356957945],"extensions":{"KHR_lights_punctual":{"light":0}}},{"name":"Spot Light 2","translation":[324.8899741341804,145.30294829505056,1026.205322761157],"rotation":[-0.6123724356957948,-0.6123724356957948,-0.3535533905932734,-0.35355339059327323],"extensions":{"KHR_lights_punctual":{"light":1}}},{"name":"Spot Light","translation":[-195.7997940961866,1944.335967571376,0],"rotation":[0,0,0,1],"extensions":{"KHR_lights_punctual":{"light":2}}},{"name":"Four","matrix":[1,0,0,0,0,1,0,0,0,0,1,0,-450.0347488795953,100.00000000000003,-49.99999999999858,1],"children":[9,10,11,12]},{"name":"Three","matrix":[1,0,0,0,0,1,0,0,0,0,1,0,1.0000000000003553,149.99999999999983,401.5691440087717,1],"children":[13,14,15]},{"name":"Two","matrix":[1,0,0,0,0,1,0,0,0,0,1,0,489.3144999193597,50,-11.238159466221866,1],"children":[16,17]},{"name":"One","matrix":[0.707106781186547,0,0.7071067811865471,0,0,1,0,0,-0.7071067811865471,0,0.707106781186547,0,1.0000000000003482,56.60933591332217,-409.6146962974632,1],"children":[18,19,20,21]},{"name":"Personal Camera","camera":0,"translation":[1335.7006134482792,1121.7757458900555,-17.745872871799524],"rotation":[-0.20844085648087454,0.6694778870036673,0.2042856340448215,0.6830952699920632]},{"name":"Cube 10","matrix":[-1.3322676295501569e-15,-5.551115123125654e-16,0.9999999999999766,0,1,-4.440892098500626e-16,1.4432899320127035e-15,0,2.220446049250314e-16,1.0000000000000002,6.661338147750941e-16,0,-2.603240987229339e-29,50.000000000000085,-99.99999999999739,1],"mesh":0},{"name":"Cube 9","matrix":[-1.3322676295501488e-15,-5.551115123125621e-16,0.9999999999999705,0,1,-4.4408920985006257e-16,1.4432899320127033e-15,0,2.220446049250314e-16,1.0000000000000002,6.661338147750939e-16,0,100.00000000000009,-50.00000000000007,-7.815970093361101e-14,1],"mesh":1},{"name":"Cube 8","matrix":[-1.3322676295501575e-15,-5.551115123125656e-16,0.999999999999977,0,1,-4.440892098500626e-16,1.4432899320127035e-15,0,2.220446049250314e-16,1.0000000000000002,6.661338147750941e-16,0,3.3132158019282496e-29,-50.00000000000006,99.99999999999736,1],"mesh":2},{"name":"Cube 7","matrix":[-1.3322676295501522e-15,-5.551115123125633e-16,0.9999999999999728,0,1,-4.440892098500626e-16,1.4432899320127033e-15,0,2.220446049250314e-16,1.0000000000000002,6.661338147750941e-16,0,-99.99999999999999,49.9999999999998,2.1316282072803034e-14,1],"mesh":3},{"name":"Cube 6","matrix":[-1.3322676295501458e-15,-5.551115123125608e-16,0.9999999999999682,0,1,-4.4408920985006257e-16,1.4432899320127033e-15,0,2.220446049250314e-16,1.0000000000000002,6.661338147750939e-16,0,-100.00000000000009,-99.9999999999998,-99.99999999999692,1],"mesh":4},{"name":"Cube 5","matrix":[-1.3322676295501427e-15,-5.551115123125594e-16,0.9999999999999658,0,1,-4.4408920985006257e-16,1.4432899320127031e-15,0,2.220446049250314e-16,1.0000000000000002,6.661338147750939e-16,0,-7.815970093361102e-14,-1.13686837721616e-13,-3.4106051316484804e-13,1],"mesh":5},{"name":"Cube 4","matrix":[-1.3322676295501553e-15,-5.551115123125648e-16,0.9999999999999754,0,1,-4.4408920985006257e-16,1.4432899320127033e-15,0,2.220446049250314e-16,1.0000000000000002,6.661338147750939e-16,0,100.00000000000009,99.9999999999998,99.99999999999658,1],"mesh":6},{"name":"Cube 3","matrix":[-1.3322676295501541e-15,-5.551115123125643e-16,0.9999999999999745,0,1,-4.4408920985006257e-16,1.4432899320127033e-15,0,2.220446049250314e-16,1.0000000000000002,6.661338147750939e-16,0,5.684341886080801e-14,-2.7610131682735413e-30,63.46683352097993,1],"mesh":7},{"name":"Cube 2","matrix":[-1.332267629550138e-15,-5.551115123125575e-16,0.9999999999999624,0,1,-4.440892098500626e-16,1.4432899320127035e-15,0,2.220446049250314e-16,1.0000000000000002,6.661338147750941e-16,0,5.684341886080802e-14,1.9721522630525295e-30,-63.46683352098055,1],"mesh":8},{"name":"Spot Light","translation":[538.3144999193594,1131.878945735686,392.02617827527587],"rotation":[0,0,0,1],"extensions":{"KHR_lights_punctual":{"light":3}}},{"name":"Spot Light","translation":[127.24138276064745,-64.47663723089002,-368.4226177566505],"rotation":[-0.6854383386210517,0.17370746658796926,0.1737074665879688,0.6854383386210547],"extensions":{"KHR_lights_punctual":{"light":4}}},{"name":"Spot Light","translation":[1251.4256325483834,-121.08597314421826,1125.7628447598427],"rotation":[-0.25159325187550297,-0.6608334401426031,-0.6608334401426068,0.25159325187550247],"extensions":{"KHR_lights_punctual":{"light":5}}},{"name":"Cube","matrix":[-1.332267629550147e-15,-5.551115123125611e-16,0.9999999999999689,0,1,-4.4408920985006257e-16,1.4432899320127031e-15,0,2.220446049250314e-16,1.0000000000000002,6.661338147750939e-16,0,0,0,0,1],"mesh":9}],"cameras":[{"type":"orthographic","orthographic":{"xmag":1920,"ymag":1017,"zfar":100000,"znear":-100000}}],"meshes":[{"primitives":[{"attributes":{"POSITION":1,"NORMAL":2,"TEXCOORD_0":3},"indices":0}]},{"primitives":[{"attributes":{"POSITION":5,"NORMAL":6,"TEXCOORD_0":7},"indices":4}]},{"primitives":[{"attributes":{"POSITION":9,"NORMAL":10,"TEXCOORD_0":11},"indices":8}]},{"primitives":[{"attributes":{"POSITION":13,"NORMAL":14,"TEXCOORD_0":15},"indices":12}]},{"primitives":[{"attributes":{"POSITION":17,"NORMAL":18,"TEXCOORD_0":19},"indices":16}]},{"primitives":[{"attributes":{"POSITION":21,"NORMAL":22,"TEXCOORD_0":23},"indices":20}]},{"primitives":[{"attributes":{"POSITION":25,"NORMAL":26,"TEXCOORD_0":27},"indices":24}]},{"primitives":[{"attributes":{"POSITION":29,"NORMAL":30,"TEXCOORD_0":31},"indices":28}]},{"primitives":[{"attributes":{"POSITION":33,"NORMAL":34,"TEXCOORD_0":35},"indices":32}]},{"primitives":[{"attributes":{"POSITION":37,"NORMAL":38,"TEXCOORD_0":39},"indices":36}]}],"buffers":[{"uri":"data:application/octet-stream;base64,","byteLength":840},{"uri":"data:application/octet-stream;base64,","byteLength":840},{"uri":"data:application/octet-stream;base64,","byteLength":840},{"uri":"data:application/octet-stream;base64,","byteLength":840},{"uri":"data:application/octet-stream;base64,","byteLength":840},{"uri":"data:application/octet-stream;base64,","byteLength":840},{"uri":"data:application/octet-stream;base64,","byteLength":840},{"uri":"data:application/octet-stream;base64,","byteLength":840},{"uri":"data:application/octet-stream;base64,","byteLength":840},{"uri":"data:application/octet-stream;base64,","byteLength":840}],"bufferViews":[{"buffer":0,"byteOffset":0,"byteLength":72,"target":34963},{"buffer":0,"byteOffset":72,"byteLength":288,"target":34962},{"buffer":0,"byteOffset":360,"byteLength":288,"target":34962},{"buffer":0,"byteOffset":648,"byteLength":192,"target":34962},{"buffer":1,"byteOffset":0,"byteLength":72,"target":34963},{"buffer":1,"byteOffset":72,"byteLength":288,"target":34962},{"buffer":1,"byteOffset":360,"byteLength":288,"target":34962},{"buffer":1,"byteOffset":648,"byteLength":192,"target":34962},{"buffer":2,"byteOffset":0,"byteLength":72,"target":34963},{"buffer":2,"byteOffset":72,"byteLength":288,"target":34962},{"buffer":2,"byteOffset":360,"byteLength":288,"target":34962},{"buffer":2,"byteOffset":648,"byteLength":192,"target":34962},{"buffer":3,"byteOffset":0,"byteLength":72,"target":34963},{"buffer":3,"byteOffset":72,"byteLength":288,"target":34962},{"buffer":3,"byteOffset":360,"byteLength":288,"target":34962},{"buffer":3,"byteOffset":648,"byteLength":192,"target":34962},{"buffer":4,"byteOffset":0,"byteLength":72,"target":34963},{"buffer":4,"byteOffset":72,"byteLength":288,"target":34962},{"buffer":4,"byteOffset":360,"byteLength":288,"target":34962},{"buffer":4,"byteOffset":648,"byteLength":192,"target":34962},{"buffer":5,"byteOffset":0,"byteLength":72,"target":34963},{"buffer":5,"byteOffset":72,"byteLength":288,"target":34962},{"buffer":5,"byteOffset":360,"byteLength":288,"target":34962},{"buffer":5,"byteOffset":648,"byteLength":192,"target":34962},{"buffer":6,"byteOffset":0,"byteLength":72,"target":34963},{"buffer":6,"byteOffset":72,"byteLength":288,"target":34962},{"buffer":6,"byteOffset":360,"byteLength":288,"target":34962},{"buffer":6,"byteOffset":648,"byteLength":192,"target":34962},{"buffer":7,"byteOffset":0,"byteLength":72,"target":34963},{"buffer":7,"byteOffset":72,"byteLength":288,"target":34962},{"buffer":7,"byteOffset":360,"byteLength":288,"target":34962},{"buffer":7,"byteOffset":648,"byteLength":192,"target":34962},{"buffer":8,"byteOffset":0,"byteLength":72,"target":34963},{"buffer":8,"byteOffset":72,"byteLength":288,"target":34962},{"buffer":8,"byteOffset":360,"byteLength":288,"target":34962},{"buffer":8,"byteOffset":648,"byteLength":192,"target":34962},{"buffer":9,"byteOffset":0,"byteLength":72,"target":34963},{"buffer":9,"byteOffset":72,"byteLength":288,"target":34962},{"buffer":9,"byteOffset":360,"byteLength":288,"target":34962},{"buffer":9,"byteOffset":648,"byteLength":192,"target":34962}],"accessors":[{"bufferView":0,"byteOffset":0,"componentType":5123,"count":36,"type":"SCALAR","min":[0],"max":[23]},{"bufferView":1,"byteOffset":0,"componentType":5126,"count":24,"type":"VEC3","min":[-50,-50,-50],"max":[50,50,50]},{"bufferView":2,"byteOffset":0,"componentType":5126,"count":24,"type":"VEC3","min":[-1,-1,-1],"max":[1,1,1]},{"bufferView":3,"byteOffset":0,"componentType":5126,"count":24,"type":"VEC2","min":[0,0],"max":[1,1]},{"bufferView":4,"byteOffset":0,"componentType":5123,"count":36,"type":"SCALAR","min":[0],"max":[23]},{"bufferView":5,"byteOffset":0,"componentType":5126,"count":24,"type":"VEC3","min":[-50,-50,-50],"max":[50,50,50]},{"bufferView":6,"byteOffset":0,"componentType":5126,"count":24,"type":"VEC3","min":[-1,-1,-1],"max":[1,1,1]},{"bufferView":7,"byteOffset":0,"componentType":5126,"count":24,"type":"VEC2","min":[0,0],"max":[1,1]},{"bufferView":8,"byteOffset":0,"componentType":5123,"count":36,"type":"SCALAR","min":[0],"max":[23]},{"bufferView":9,"byteOffset":0,"componentType":5126,"count":24,"type":"VEC3","min":[-50,-50,-50],"max":[50,50,50]},{"bufferView":10,"byteOffset":0,"componentType":5126,"count":24,"type":"VEC3","min":[-1,-1,-1],"max":[1,1,1]},{"bufferView":11,"byteOffset":0,"componentType":5126,"count":24,"type":"VEC2","min":[0,0],"max":[1,1]},{"bufferView":12,"byteOffset":0,"componentType":5123,"count":36,"type":"SCALAR","min":[0],"max":[23]},{"bufferView":13,"byteOffset":0,"componentType":5126,"count":24,"type":"VEC3","min":[-50,-50,-50],"max":[50,50,50]},{"bufferView":14,"byteOffset":0,"componentType":5126,"count":24,"type":"VEC3","min":[-1,-1,-1],"max":[1,1,1]},{"bufferView":15,"byteOffset":0,"componentType":5126,"count":24,"type":"VEC2","min":[0,0],"max":[1,1]},{"bufferView":16,"byteOffset":0,"componentType":5123,"count":36,"type":"SCALAR","min":[0],"max":[23]},{"bufferView":17,"byteOffset":0,"componentType":5126,"count":24,"type":"VEC3","min":[-50,-50,-50],"max":[50,50,50]},{"bufferView":18,"byteOffset":0,"componentType":5126,"count":24,"type":"VEC3","min":[-1,-1,-1],"max":[1,1,1]},{"bufferView":19,"byteOffset":0,"componentType":5126,"count":24,"type":"VEC2","min":[0,0],"max":[1,1]},{"bufferView":20,"byteOffset":0,"componentType":5123,"count":36,"type":"SCALAR","min":[0],"max":[23]},{"bufferView":21,"byteOffset":0,"componentType":5126,"count":24,"type":"VEC3","min":[-50,-50,-50],"max":[50,50,50]},{"bufferView":22,"byteOffset":0,"componentType":5126,"count":24,"type":"VEC3","min":[-1,-1,-1],"max":[1,1,1]},{"bufferView":23,"byteOffset":0,"componentType":5126,"count":24,"type":"VEC2","min":[0,0],"max":[1,1]},{"bufferView":24,"byteOffset":0,"componentType":5123,"count":36,"type":"SCALAR","min":[0],"max":[23]},{"bufferView":25,"byteOffset":0,"componentType":5126,"count":24,"type":"VEC3","min":[-50,-50,-50],"max":[50,50,50]},{"bufferView":26,"byteOffset":0,"componentType":5126,"count":24,"type":"VEC3","min":[-1,-1,-1],"max":[1,1,1]},{"bufferView":27,"byteOffset":0,"componentType":5126,"count":24,"type":"VEC2","min":[0,0],"max":[1,1]},{"bufferView":28,"byteOffset":0,"componentType":5123,"count":36,"type":"SCALAR","min":[0],"max":[23]},{"bufferView":29,"byteOffset":0,"componentType":5126,"count":24,"type":"VEC3","min":[-50,-50,-50],"max":[50,50,50]},{"bufferView":30,"byteOffset":0,"componentType":5126,"count":24,"type":"VEC3","min":[-1,-1,-1],"max":[1,1,1]},{"bufferView":31,"byteOffset":0,"componentType":5126,"count":24,"type":"VEC2","min":[0,0],"max":[1,1]},{"bufferView":32,"byteOffset":0,"componentType":5123,"count":36,"type":"SCALAR","min":[0],"max":[23]},{"bufferView":33,"byteOffset":0,"componentType":5126,"count":24,"type":"VEC3","min":[-50,-50,-50],"max":[50,50,50]},{"bufferView":34,"byteOffset":0,"componentType":5126,"count":24,"type":"VEC3","min":[-1,-1,-1],"max":[1,1,1]},{"bufferView":35,"byteOffset":0,"componentType":5126,"count":24,"type":"VEC2","min":[0,0],"max":[1,1]},{"bufferView":36,"byteOffset":0,"componentType":5123,"count":36,"type":"SCALAR","min":[0],"max":[23]},{"bufferView":37,"byteOffset":0,"componentType":5126,"count":24,"type":"VEC3","min":[-50,-50,-50],"max":[50,50,50]},{"bufferView":38,"byteOffset":0,"componentType":5126,"count":24,"type":"VEC3","min":[-1,-1,-1],"max":[1,1,1]},{"bufferView":39,"byteOffset":0,"componentType":5126,"count":24,"type":"VEC2","min":[0,0],"max":[1,1]}],"extensions":{"KHR_lights_punctual":{"lights":[{"type":"spot","name":"Spot Light 3","color":[1,1,1],"intensity":1,"range":2000,"spot":{"innerConeAngle":0.5235987755982988,"outerConeAngle":0.5235987755982988}},{"type":"spot","name":"Spot Light 2","color":[1,1,1],"intensity":1,"range":3026,"spot":{"innerConeAngle":0.4014257279586958,"outerConeAngle":0.4014257279586958}},{"type":"spot","name":"Spot Light","color":[1,1,1],"intensity":1,"range":2000,"spot":{"innerConeAngle":0.29670597283903605,"outerConeAngle":0.29670597283903605}},{"type":"spot","name":"Spot Light","color":[1,1,1],"intensity":1,"range":1800,"spot":{"innerConeAngle":0.3490658503988659,"outerConeAngle":0.3490658503988659}},{"type":"spot","name":"Spot Light","color":[1,1,1],"intensity":1,"range":1287,"spot":{"innerConeAngle":0.20943951023931956,"outerConeAngle":0.20943951023931956}},{"type":"spot","name":"Spot Light","color":[1,1,1],"intensity":1,"range":1287,"spot":{"innerConeAngle":0.20943951023931956,"outerConeAngle":0.20943951023931956}}]}},"extensionsUsed":["KHR_lights_punctual"]}